# xmcd CD database file
#
# Track frame offsets:
#	150
#	12785
#	34107
#	55612
#	67507
#	83942
#	93585
#	109015
#	129265
#	146822
#	160482
#	174312
#
# Disc length: 2532 seconds
#
# Revision: 0
# Processed by: cddbd v1.4PL0 Copyright (c) Steve Scherf et al.
# Submitted via: CDex 1.40Release
#
DISCID=9009e20c
DTITLE=Reel World String Band - The Coast Is Clear
DYEAR=2001
DGENRE=Country
TTITLE0=Silver Dew On The Bluegrass
TTITLE1=Bluebird On The Branch
TTITLE2=James Alley Blues
TTITLE3=Velvet Stomp
TTITLE4=The Coast Is Clear
TTITLE5=I Can See Your Aura
TTITLE6=Between The Shadows
TTITLE7=Sally's Song/Sally in the Garden
TTITLE8=Little Omie's Done Got Wise
TTITLE9=Spitten Out The Coal/Cotton Eyed-Joe
TTITLE10=Full Moon Full of Love
TTITLE11=Last Chance Lullaby
EXTD=YEAR: 2001 ID3G: 2
EXTT0=
EXTT1=
EXTT2=
EXTT3=
EXTT4=
EXTT5=
EXTT6=
EXTT7=
EXTT8=
EXTT9=
EXTT10=
EXTT11=
PLAYORDER=
